<svg width="100" height="100" viewBox="0 0 100 100" fill="none" xmlns="http://www.w3.org/2000/svg">
<path fill-rule="evenodd" clip-rule="evenodd" d="M28.6131 18.6131C24 23.2261 24 30.6508 24 45.5C24 60.3492 24 67.7739 28.6131 72.3869C33.2261 77 40.6508 77 55.5 77C70.3492 77 77.7739 77 82.3869 72.3869C87 67.7739 87 60.3492 87 45.5C87 30.6508 87 23.2261 82.3869 18.6131C77.7739 14 70.3492 14 55.5 14C40.6508 14 33.2261 14 28.6131 18.6131ZM52.1771 21.0875H58.8229C63.1307 21.0874 66.6031 21.0874 69.334 21.4546C72.1694 21.8358 74.5567 22.6513 76.4527 24.5473C78.3487 26.4433 79.1643 28.8307 79.5455 31.666C79.9126 34.3969 79.9126 37.8693 79.9125 42.1772V48.8228C79.9126 53.1308 79.9126 56.6031 79.5455 59.334C79.1643 62.1694 78.3487 64.5567 76.4527 66.4527C74.5567 68.3487 72.1694 69.1643 69.334 69.5455C66.6031 69.9126 63.1308 69.9126 58.8228 69.9125H52.1772C47.8692 69.9126 44.3969 69.9126 41.666 69.5455C38.8306 69.1643 36.4433 68.3487 34.5473 66.4527C33.6715 65.577 33.0263 64.5964 32.5479 63.5153C32.3346 63.5785 32.1088 63.6125 31.875 63.6125C30.5702 63.6125 29.5125 62.5548 29.5125 61.25V51.8C29.5125 50.7713 30.1699 49.8962 31.0876 49.5719V41.4281C30.1699 41.1038 29.5125 40.2287 29.5125 39.2V29.75C29.5125 28.4452 30.5702 27.3875 31.875 27.3875C32.1088 27.3875 32.3347 27.4215 32.5479 27.4847C33.0263 26.4036 33.6715 25.4231 34.5473 24.5473C36.4433 22.6513 38.8306 21.8358 41.666 21.4546C44.3969 21.0874 47.8693 21.0874 52.1771 21.0875Z" fill="#91C8FF"/>
<circle cx="48.5" cy="52.5" r="22.5" fill="white"/>
<path d="M51.8125 38.8275V43.3276C55.5812 44.6628 58.2813 48.2653 58.2813 52.5C58.2813 52.7125 58.2745 52.9233 58.2611 53.1324L62.3891 54.9057C62.5236 54.124 62.5938 53.3202 62.5938 52.5C62.5938 45.8571 57.9938 40.2911 51.8125 38.8275Z" fill="url(#paint0_linear_2491_2890)"/>
<path d="M45.3438 38.8275C39.1624 40.2911 34.5625 45.8571 34.5625 52.5C34.5625 53.3202 34.6326 54.124 34.7672 54.9057L38.8952 53.1324C38.8818 52.9233 38.875 52.7125 38.875 52.5C38.875 48.2653 41.5751 44.6628 45.3438 43.3276V38.8275Z" fill="url(#paint1_linear_2491_2890)"/>
<path d="M59.8396 60.8647L55.7126 59.0919C53.9396 61.0188 51.3995 62.2258 48.5781 62.2258C45.7568 62.2258 43.2166 61.0188 41.4436 59.0919L37.3167 60.8647C39.8706 64.3135 43.964 66.5484 48.5781 66.5484C53.1923 66.5484 57.2856 64.3135 59.8396 60.8647Z" fill="url(#paint2_linear_2491_2890)"/>
<path fill-rule="evenodd" clip-rule="evenodd" d="M53.1273 19H44.029C38.1313 18.9999 33.3775 18.9998 29.6387 19.5037C25.757 20.0268 22.4886 21.1459 19.8929 23.7477C18.6939 24.9495 17.8106 26.295 17.1556 27.7786C16.8637 27.6918 16.5544 27.6452 16.2344 27.6452C14.4481 27.6452 13 29.0966 13 30.8871V43.8548C13 45.2664 13.9001 46.4673 15.1563 46.9123V58.0877C13.9001 58.5327 13 59.7336 13 61.1452V74.1129C13 75.9034 14.4481 77.3548 16.2344 77.3548C16.5545 77.3548 16.8637 77.3082 17.1556 77.2214C17.8106 78.705 18.6939 80.0505 19.8929 81.2523C22.4886 83.8541 25.757 84.9732 29.6387 85.4963C33.3775 86.0002 38.1313 86.0001 44.029 86H53.1273C59.025 86.0001 63.7788 86.0002 67.5176 85.4963C71.3993 84.9732 74.6676 83.8541 77.2634 81.2523C79.8591 78.6505 80.9756 75.3745 81.4975 71.4837C82.0002 67.7362 82.0001 62.9713 82 57.0598V47.9402C82.0001 42.0287 82.0002 37.2638 81.4975 33.5163C80.9756 29.6255 79.8591 26.3495 77.2634 23.7477C74.6676 21.1459 71.3993 20.0268 67.5176 19.5037C63.7788 18.9998 59.025 18.9999 53.1273 19ZM28.0938 52.5C28.0938 41.1603 37.2649 31.9677 48.5781 31.9677C59.8913 31.9677 69.0625 41.1603 69.0625 52.5C69.0625 63.8396 59.8913 73.0323 48.5781 73.0323C37.2649 73.0323 28.0938 63.8396 28.0938 52.5Z" fill="url(#paint3_linear_2491_2890)"/>
<defs>
<linearGradient id="paint0_linear_2491_2890" x1="47.5" y1="19" x2="47.5" y2="86" gradientUnits="userSpaceOnUse">
<stop stop-color="#1B63EF"/>
<stop offset="1" stop-color="#91C8FF"/>
</linearGradient>
<linearGradient id="paint1_linear_2491_2890" x1="47.5" y1="19" x2="47.5" y2="86" gradientUnits="userSpaceOnUse">
<stop stop-color="#1B63EF"/>
<stop offset="1" stop-color="#91C8FF"/>
</linearGradient>
<linearGradient id="paint2_linear_2491_2890" x1="47.5" y1="19" x2="47.5" y2="86" gradientUnits="userSpaceOnUse">
<stop stop-color="#1B63EF"/>
<stop offset="1" stop-color="#91C8FF"/>
</linearGradient>
<linearGradient id="paint3_linear_2491_2890" x1="47.5" y1="19" x2="47.5" y2="86" gradientUnits="userSpaceOnUse">
<stop stop-color="#1B63EF"/>
<stop offset="1" stop-color="#91C8FF"/>
</linearGradient>
</defs>
</svg>
